HIERARCHY
ROOT Hips
{
    OFFSET 0.000000 0.000000 0.000000
    CHANNELS 6 Xposition Yposition Zposition Zrotation Xrotation Yrotation
    JOINT Spine
    {
        OFFSET 0.000001 7.292995 0.000000
        CHANNELS 3 Zrotation Xrotation Yrotation
        JOINT Spine1
        {
            OFFSET -0.000000 20.255388 0.000001
            CHANNELS 3 Zrotation Xrotation Yrotation
            JOINT Neck
            {
                OFFSET 0.000001 20.786594 0.000000
                CHANNELS 3 Zrotation Xrotation Yrotation
                JOINT Head
                {
                    OFFSET 0.000003 12.530788 1.776080
                    CHANNELS 3 Zrotation Xrotation Yrotation
                    End Site
                    {
                        OFFSET 0.000000 17.760757 0.000000
                    }
                }
            }
            JOINT LeftShoulder
            {
                OFFSET 3.550532 15.465697 -0.908801
                CHANNELS 3 Zrotation Xrotation Yrotation
                JOINT LeftArm
                {
                    OFFSET 12.513301 -0.000005 0.000001
                    CHANNELS 3 Zrotation Xrotation Yrotation
                    JOINT LeftForeArm
                    {
                        OFFSET 24.225992 0.000005 0.000000
                        CHANNELS 3 Zrotation Xrotation Yrotation
                        JOINT LeftHand
                        {
                            OFFSET 20.711395 -0.000004 0.000000
                            CHANNELS 3 Zrotation Xrotation Yrotation
                            JOINT LeftHandThumb1
                            {
                                OFFSET 2.121964 -2.411326 3.375861
                                CHANNELS 3 Zrotation Xrotation Yrotation
                                JOINT LeftHandThumb2
                                {
                                    OFFSET 2.803212 -0.000001 -0.000002
                                    CHANNELS 3 Zrotation Xrotation Yrotation
                                    JOINT LeftHandThumb3
                                    {
                                        OFFSET 2.395929 0.000000 0.000000
                                        CHANNELS 3 Zrotation Xrotation Yrotation
                                        End Site
                                        {
                                            OFFSET 2.127676 0.000000 0.000000
                                        }
                                    }
                                }
                            }
                            JOINT LeftHandIndex1
                            {
                                OFFSET 8.680776 0.000004 3.375861
                                CHANNELS 3 Zrotation Xrotation Yrotation
                                JOINT LeftHandIndex2
                                {
                                    OFFSET 4.218180 -0.000002 0.000001
                                    CHANNELS 3 Zrotation Xrotation Yrotation
                                    JOINT LeftHandIndex3
                                    {
                                        OFFSET 2.109090 0.000001 -0.000000
                                        CHANNELS 3 Zrotation Xrotation Yrotation
                                        End Site
                                        {
                                            OFFSET 1.872952 0.000000 0.000000
                                        }
                                    }
                                }
                            }
                            JOINT LeftHandMiddle1
                            {
                                OFFSET 8.680775 0.000001 1.118862
                                CHANNELS 3 Zrotation Xrotation Yrotation
                                JOINT LeftHandMiddle2
                                {
                                    OFFSET 4.640000 0.000002 -0.000000
                                    CHANNELS 3 Zrotation Xrotation Yrotation
                                    JOINT LeftHandMiddle3
                                    {
                                        OFFSET 2.530906 0.000005 0.000000
                                        CHANNELS 3 Zrotation Xrotation Yrotation
                                        End Site
                                        {
                                            OFFSET 2.247544 0.000000 0.000000
                                        }
                                    }
                                }
                            }
                            JOINT LeftHandRing1
                            {
                                OFFSET 8.198514 -0.000004 -1.118859
                                CHANNELS 3 Zrotation Xrotation Yrotation
                                JOINT LeftHandRing2
                                {
                                    OFFSET 4.218182 -0.000003 -0.000001
                                    CHANNELS 3 Zrotation Xrotation Yrotation
                                    JOINT LeftHandRing3
                                    {
                                        OFFSET 2.109086 0.000004 0.000001
                                        CHANNELS 3 Zrotation Xrotation Yrotation
                                        End Site
                                        {
                                            OFFSET 1.872952 0.000000 0.000000
                                        }
                                    }
                                }
                            }
                            JOINT LeftHandPinky1
                            {
                                OFFSET 7.716242 0.000005 -3.375859
                                CHANNELS 3 Zrotation Xrotation Yrotation
                                JOINT LeftHandPinky2
                                {
                                    OFFSET 3.374535 0.000004 0.000002
                                    CHANNELS 3 Zrotation Xrotation Yrotation
                                    JOINT LeftHandPinky3
                                    {
                                        OFFSET 1.687275 0.000002 -0.000001
                                        CHANNELS 3 Zrotation Xrotation Yrotation
                                        End Site
                                        {
                                            OFFSET 1.498360 0.000000 0.000000
                                        }
                                    }
                                }
                            }
                        }
                    }
                }
            }
            JOINT RightShoulder
            {
                OFFSET -3.550531 15.465694 -0.908802
                CHANNELS 3 Zrotation Xrotation Yrotation
                JOINT RightArm
                {
                    OFFSET -12.513298 -0.000004 0.000001
                    CHANNELS 3 Zrotation Xrotation Yrotation
                    JOINT RightForeArm
                    {
                        OFFSET -24.225996 -0.000002 -0.000000
                        CHANNELS 3 Zrotation Xrotation Yrotation
                        JOINT RightHand
                        {
                            OFFSET -20.711401 0.000005 0.000001
                            CHANNELS 3 Zrotation Xrotation Yrotation
                            JOINT RightHandThumb1
                            {
                                OFFSET -2.121970 -2.411334 3.375861
                                CHANNELS 3 Zrotation Xrotation Yrotation
                                JOINT RightHandThumb2
                                {
                                    OFFSET -2.803210 0.000003 -0.000004
                                    CHANNELS 3 Zrotation Xrotation Yrotation
                                    JOINT RightHandThumb3
                                    {
                                        OFFSET -2.395930 -0.000001 0.000002
                                        CHANNELS 3 Zrotation Xrotation Yrotation
                                        End Site
                                        {
                                            OFFSET -2.127676 0.000000 0.000000
                                        }
                                    }
                                }
                            }
                            JOINT RightHandIndex1
                            {
                                OFFSET -8.680779 0.000001 3.375860
                                CHANNELS 3 Zrotation Xrotation Yrotation
                                JOINT RightHandIndex2
                                {
                                    OFFSET -4.218180 0.000000 -0.000000
                                    CHANNELS 3 Zrotation Xrotation Yrotation
                                    JOINT RightHandIndex3
                                    {
                                        OFFSET -2.109090 0.000001 -0.000000
                                        CHANNELS 3 Zrotation Xrotation Yrotation
                                        End Site
                                        {
                                            OFFSET -1.872952 0.000000 0.000000
                                        }
                                    }
                                }
                            }
                            JOINT RightHandMiddle1
                            {
                                OFFSET -8.680780 0.000001 1.118860
                                CHANNELS 3 Zrotation Xrotation Yrotation
                                JOINT RightHandMiddle2
                                {
                                    OFFSET -4.640000 -0.000002 0.000001
                                    CHANNELS 3 Zrotation Xrotation Yrotation
                                    JOINT RightHandMiddle3
                                    {
                                        OFFSET -2.530910 0.000001 -0.000000
                                        CHANNELS 3 Zrotation Xrotation Yrotation
                                        End Site
                                        {
                                            OFFSET -2.247544 0.000000 0.000000
                                        }
                                    }
                                }
                            }
                            JOINT RightHandRing1
                            {
                                OFFSET -8.198519 0.000005 -1.118860
                                CHANNELS 3 Zrotation Xrotation Yrotation
                                JOINT RightHandRing2
                                {
                                    OFFSET -4.218180 -0.000006 0.000000
                                    CHANNELS 3 Zrotation Xrotation Yrotation
                                    JOINT RightHandRing3
                                    {
                                        OFFSET -2.109090 0.000001 -0.000000
                                        CHANNELS 3 Zrotation Xrotation Yrotation
                                        End Site
                                        {
                                            OFFSET -1.872952 0.000000 0.000000
                                        }
                                    }
                                }
                            }
                            JOINT RightHandPinky1
                            {
                                OFFSET -7.716248 -0.000002 -3.375859
                                CHANNELS 3 Zrotation Xrotation Yrotation
                                JOINT RightHandPinky2
                                {
                                    OFFSET -3.374540 0.000000 0.000000
                                    CHANNELS 3 Zrotation Xrotation Yrotation
                                    JOINT RightHandPinky3
                                    {
                                        OFFSET -1.687270 0.000004 0.000001
                                        CHANNELS 3 Zrotation Xrotation Yrotation
                                        End Site
                                        {
                                            OFFSET -1.498360 0.000000 0.000000
                                        }
                                    }
                                }
                            }
                        }
                    }
                }
            }
        }
    }
    JOINT LeftUpLeg
    {
        OFFSET 8.880376 -0.000000 -0.000000
        CHANNELS 3 Zrotation Xrotation Yrotation
        JOINT LeftLeg
        {
            OFFSET -0.000001 -40.387405 -0.000001
            CHANNELS 3 Zrotation Xrotation Yrotation
            JOINT LeftFoot
            {
                OFFSET -0.000001 -36.911297 -0.000001
                CHANNELS 3 Zrotation Xrotation Yrotation
                JOINT LeftToeBase
                {
                    OFFSET -0.000002 -5.772240 13.320604
                    CHANNELS 3 Zrotation Xrotation Yrotation
                    End Site
                    {
                        OFFSET 0.000000 0.000000 3.552151
                    }
                }
            }
        }
    }
    JOINT RightUpLeg
    {
        OFFSET -8.880376 0.000000 0.000000
        CHANNELS 3 Zrotation Xrotation Yrotation
        JOINT RightLeg
        {
            OFFSET -0.000001 -40.387390 0.000000
            CHANNELS 3 Zrotation Xrotation Yrotation
            JOINT RightFoot
            {
                OFFSET 0.000002 -36.911297 -0.000001
                CHANNELS 3 Zrotation Xrotation Yrotation
                JOINT RightToeBase
                {
                    OFFSET 0.000001 -5.772238 13.320600
                    CHANNELS 3 Zrotation Xrotation Yrotation
                    End Site
                    {
                        OFFSET 0.000000 0.000000 3.552151
                    }
                }
            }
        }
    }
}
MOTION
Frames: 5
Frame Time: 0.013889
33.356480    79.561676    14.637452    13.225747    1.711328    -11.165679    -0.933969    -8.413209    -6.357783    9.775942    15.395081    -8.730137    4.628412    -21.129297    16.133371    1.820138    5.333855    15.317746    12.901981    -7.686176    -14.382186    -30.947823    29.267305    -73.746704    12.214707    -2.133836    -99.759346    43.919296    -13.933936    -10.652033    28.341841    36.545803    -42.670994    -11.961890    -0.023267    23.317461    -0.000000    0.000000    -0.000000    6.022314    17.906977    2.146748    5.729579    -0.000003    0.000001    5.729586    0.000003    -0.000003    5.800510    8.954673    1.096434    5.729580    0.000003    -0.000002    5.729580    -0.000003    -0.000002    5.800506    -8.954664    -2.032279    5.729579    -0.000000    -0.000002    5.729584    -0.000003    -0.000002    6.022314    -17.906969    -4.018448    5.729578    0.000000    -0.000000    5.729579    -0.000003    0.000000    4.347002    5.838527    12.956074    5.713990    51.068169    27.161184    -3.533883    1.762456    63.525726    -13.658153    35.751869    27.779713    -31.511211    33.801765    47.916946    17.036095    -2.206362    -23.218660    -0.000000    0.000000    -0.000000    -6.022313    17.906967    11.734822    -5.729579    0.000002    0.000002    -5.729578    0.000002    -0.000000    -5.800510    8.954670    5.844348    -5.729581    -0.000002    0.000002    -5.729576    -0.000002    0.000002    -5.800515    -8.954669    -0.588705    -5.729579    -0.000003    -0.000005    -5.729578    0.000003    0.000008    -6.022317    -17.906986    -1.223524    -5.729578    -0.000000    0.000002    -5.729581    0.000000    -0.000004    -20.429420    -40.290535    -3.037796    -0.000002    69.272179    0.000001    3.720228    23.296841    4.504057    -0.000000    2.632682    0.000001    -20.605736    -24.233332    -15.068840    0.000004    49.214626    -0.000006    10.262159    -21.463335    17.362907    0.000001    -0.575798    -0.000002    
33.360992    79.473747    14.645184    13.212379    1.596915    -10.948534    -0.949039    -8.405542    -6.465322    9.863107    15.393711    -8.857855    4.890384    -20.897615    16.140348    1.974626    5.508099    15.199102    12.966018    -7.600097    -14.382525    -30.602659    29.371244    -73.881142    12.013532    -2.052036    -99.551331    43.170609    -14.026139    -11.031431    28.336637    36.549183    -42.620064    -12.083107    -0.075515    23.317362    -0.000000    0.000000    -0.000000    6.022325    17.906973    2.248306    5.729586    0.000003    -0.000004    5.729576    0.000000    0.000003    5.800517    8.954669    1.147206    5.729577    0.000004    0.000003    5.729580    0.000003    -0.000002    5.800516    -8.954677    -2.040214    5.729575    0.000003    0.000002    5.729581    0.000000    0.000003    6.022319    -17.906977    -4.034303    5.729578    0.000000    -0.000000    5.729577    0.000000    0.000002    4.480921    5.830681    12.910330    5.947015    50.908276    26.867956    -3.533716    1.767406    63.460560    -13.520321    35.906879    27.627754    -31.604965    33.734688    47.755981    16.947409    -2.168342    -23.222040    -0.000000    0.000000    -0.000000    -6.022321    17.906975    11.574677    -5.729579    -0.000003    -0.000003    -5.729580    0.000002    0.000004    -5.800516    8.954672    5.764284    -5.729576    -0.000002    -0.000001    -5.729579    0.000000    -0.000004    -5.800512    -8.954675    -0.662315    -5.729580    0.000000    -0.000001    -5.729581    0.000007    -0.000001    -6.022316    -17.906977    -1.370742    -5.729579    0.000003    -0.000001    -5.729575    -0.000004    0.000002    -20.551968    -40.307285    -3.082294    0.000000    69.500771    0.000002    3.667790    23.470659    4.698359    -0.000001    2.660538    0.000000    -20.643778    -24.188801    -15.086967    0.000003    49.534760    -0.000006    10.036593    -21.650866    17.174057    0.000000    -0.638786    -0.000000    
33.375175    79.398674    14.639476    13.192609    1.489895    -10.788972    -0.956521    -8.384699    -6.531810    9.964526    15.394378    -8.950892    5.112632    -20.724976    16.134407    2.094820    5.636209    15.089078    12.978519    -7.519691    -14.366095    -30.261057    29.471798    -74.003082    11.825155    -1.979991    -99.370598    42.220863    -14.064450    -11.433246    28.331820    36.552818    -42.623894    -12.208087    -0.129392    23.317133    -0.000000    0.000000    -0.000000    6.022320    17.906971    2.352086    5.729579    0.000003    -0.000001    5.729578    0.000000    0.000004    5.800521    8.954672    1.199094    5.729580    -0.000007    0.000002    5.729578    0.000003    -0.000002    5.800518    -8.954673    -2.043635    5.729578    0.000000    0.000003    5.729583    -0.000003    -0.000002    6.022324    -17.906973    -4.041152    5.729578    0.000004    0.000003    5.729583    -0.000003    -0.000002    4.576518    5.810553    12.888533    6.224783    50.745579    26.515190    -3.445345    1.725808    63.424496    -13.454769    35.970512    27.558952    -31.647982    33.710972    47.607857    16.882589    -2.140546    -23.224483    -0.000000    0.000000    -0.000000    -6.022320    17.906973    11.456041    -5.729576    -0.000002    -0.000001    -5.729578    0.000002    0.000002    -5.800513    8.954669    5.704961    -5.729576    -0.000002    0.000001    -5.729581    0.000002    0.000001    -5.800511    -8.954679    -0.744523    -5.729581    -0.000000    0.000002    -5.729580    0.000000    -0.000001    -6.022316    -17.906988    -1.535161    -5.729578    0.000003    0.000006    -5.729580    0.000000    -0.000001    -20.645975    -40.313671    -3.089617    0.000004    69.670090    -0.000004    3.642705    23.595881    4.906638    -0.000000    2.674738    0.000001    -20.647322    -24.164797    -15.047074    -0.000003    49.809048    0.000007    9.749556    -21.840406    16.912342    -0.000001    -0.695534    0.000000    
33.368935    79.276352    14.680098    13.152381    1.352675    -10.381797    -0.983538    -8.434848    -6.675413    10.082972    15.398754    -9.121996    5.350081    -20.499187    16.051624    2.222851    5.808109    14.888130    13.037464    -7.380644    -14.332164    -29.788023    29.724213    -74.189949    11.361936    -1.902253    -99.380142    40.926357    -13.822039    -11.752476    28.432034    36.478569    -42.676945    -12.322337    -0.178632    23.316824    -0.000000    0.000000    -0.000000    6.022324    17.906973    2.560818    5.729582    0.000000    -0.000000    5.729579    0.000003    -0.000001    5.800515    8.954668    1.303467    5.729582    -0.000003    0.000001    5.729580    0.000003    -0.000000    5.800513    -8.954670    -2.021456    5.729584    -0.000011    -0.000006    5.729576    0.000010    0.000001    6.022316    -17.906979    -3.996801    5.729581    0.000000    0.000002    5.729578    0.000003    -0.000000    4.758757    5.849578    12.774809    6.724364    50.591759    25.912584    -3.280400    1.644747    63.399639    -13.401996    35.801865    27.680925    -31.607893    33.760269    47.442562    16.837322    -2.121136    -23.226160    -0.000000    0.000000    -0.000000    -6.022319    17.906971    11.326899    -5.729578    0.000000    -0.000000    -5.729577    -0.000002    -0.000001    -5.800515    8.954667    5.640392    -5.729577    0.000002    -0.000001    -5.729577    -0.000005    -0.000000    -5.800513    -8.954677    -0.845714    -5.729581    0.000007    0.000000    -5.729574    -0.000007    0.000004    -6.022319    -17.906971    -1.737530    -5.729581    -0.000003    -0.000006    -5.729579    -0.000000    0.000004    -20.812689    -40.277313    -3.155453    -0.000009    69.985794    0.000008    3.648380    23.629272    5.141283    0.000000    2.658121    -0.000001    -20.686306    -24.035116    -15.119652    0.000000    50.239838    -0.000001    9.401821    -22.138420    16.592293    -0.000001    -0.766744    0.000000    
33.376461    79.189651    14.695942    13.098744    1.246120    -10.086509    -1.003114    -8.460174    -6.787029    10.158763    15.420571    -9.253093    5.564842    -20.348736    16.018690    2.336582    5.908529    14.756210    13.073097    -7.264565    -14.372416    -29.381804    29.883356    -74.264565    10.845943    -1.827966    -99.452606    40.064796    -13.682335    -12.164827    28.468678    36.451527    -42.719841    -12.430607    -0.225296    23.316452    -0.000000    0.000000    -0.000000    6.022318    17.906979    2.722950    5.729578    -0.000003    0.000000    5.729582    0.000003    -0.000001    5.800512    8.954674    1.384534    5.729581    0.000000    -0.000000    5.729578    -0.000003    0.000002    5.800514    -8.954670    -1.984973    5.729578    0.000004    0.000003    5.729579    -0.000000    -0.000005    6.022315    -17.906979    -3.923833    5.729580    0.000003    -0.000004    5.729576    0.000000    0.000002    4.874690    5.876774    12.757558    6.950047    50.488243    25.620996    -3.277822    1.649852    63.310528    -13.267179    35.794960    27.678183    -31.465958    33.898647    47.243530    16.853920    -2.128257    -23.225550    -0.000000    0.000000    -0.000000    -6.022318    17.906977    11.222445    -5.729579    -0.000000    0.000001    -5.729578    0.000000    -0.000003    -5.800517    8.954674    5.588166    -5.729576    0.000000    -0.000002    -5.729578    -0.000002    -0.000002    -5.800514    -8.954674    -0.921385    -5.729579    -0.000000    0.000001    -5.729580    0.000007    0.000002    -6.022320    -17.906975    -1.888885    -5.729580    0.000003    -0.000000    -5.729579    0.000000    -0.000004    -20.959150    -40.240276    -3.262554    0.000001    70.213577    -0.000002    3.555703    23.617208    5.423652    -0.000000    2.681981    0.000000    -20.698029    -23.935087    -15.174207    0.000002    50.538292    -0.000004    9.157850    -22.314104    16.375347    0.000002    -0.796254    -0.000002    
